# xmcd
#
# Track frame offsets:
#	150
#	17285
#	33597
#	52746
#	67111
#	87247
#	106938
#	126771
#	145358
#	161778
#	174300
#	192994
#	215867
#	238721
#
# Disc length: 3474 seconds
#
# Revision: 1
# Processed by: cddbd v1.5.1PL2 Copyright (c) Steve Scherf et al.
# Submitted via: audiograbber 1.83.01
#
DISCID=c30d900e
DTITLE=Various Artist - SBG008
DYEAR=1900
DGENRE=Other
TTITLE0=Commodores - Three Times A Lady
TTITLE1=Cyndi Lauper - Girls Just Wanna Have Fun
TTITLE2=The Moody Blues - Nights In White Satin
TTITLE3=The Carpenters - We've Only Just Begun
TTITLE4=Whitney Houston - Its Not Right But its Ok
TTITLE5=Backstreet Boys - Show Me The Meaning Of Being Lonely
TTITLE6=Will Smith - Will 2K
TTITLE7=98 Degrees - I Do
TTITLE8=Sonique - It Feels So Good
TTITLE9=Blink 182 - All The Small Things
TTITLE10=Matchbox Twenty - Bent
TTITLE11=Gwyneth Paltrow and Huey Lewis - Cruisin'
TTITLE12=N'SYNC - This I Promise You
TTITLE13=U2 - Stuck In A Moment You Can't Get Out
EXTD=
EXTT0=
EXTT1=
EXTT2=
EXTT3=
EXTT4=
EXTT5=
EXTT6=
EXTT7=
EXTT8=
EXTT9=
EXTT10=
EXTT11=
EXTT12=
EXTT13=
PLAYORDER=
